<svg width="117" height="117" viewBox="0 0 117 117" fill="none" xmlns="http://www.w3.org/2000/svg">
<g clip-path="url(#clip0_18_6394)">
<path d="M102.375 27.4147H23.7656V69.473H102.375V27.4147Z" fill="#A0E557"/>
<path d="M62.9668 62.172C70.5391 62.172 76.6777 56.0334 76.6777 48.4611C76.6777 40.8887 70.5391 34.7501 62.9668 34.7501C55.3945 34.7501 49.2559 40.8887 49.2559 48.4611C49.2559 56.0334 55.3945 62.172 62.9668 62.172Z" fill="#00A570"/>
<path d="M102.375 37.54V27.4144H92.249C92.249 33.0067 96.7823 37.54 102.375 37.54Z" fill="#00A570"/>
<path d="M102.375 59.3459V69.4714H92.249C92.249 63.8792 96.7823 59.3459 102.375 59.3459Z" fill="#00A570"/>
<path d="M23.7656 59.3459V69.4714H33.8912C33.8912 63.8792 29.3579 59.3459 23.7656 59.3459Z" fill="#00A570"/>
<path d="M86.2826 79.6576C79.8147 77.4455 72.7462 77.7865 66.5212 80.6107L51.1673 87.5768C48.2656 88.8933 47.0101 92.3358 48.3833 95.2113C48.9925 96.4868 50.0231 97.4375 51.2363 97.969L50.8437 98.0702H46.1925C45.1573 98.0702 44.1377 97.8209 43.2193 97.3435L23.9668 87.3346C20.758 85.6664 16.8047 86.9687 15.2161 90.2177C13.7259 93.2645 14.8559 96.9448 17.799 98.6303L40.9501 111.891C44.1386 113.718 47.8591 114.389 51.4849 113.793L100.089 105.803V84.3794L86.2826 79.6576Z" fill="#FFCDAC"/>
<path d="M114.715 76.5527H100.09V114.715H114.715V76.5527Z" fill="#4DBAF6"/>
<path d="M16.9102 6.85547H57.3414C59.9022 6.85547 62.4232 7.48914 64.6797 8.69982L99.5748 27.4223H56.1134C54.6655 27.4223 53.4919 28.596 53.4919 30.0439C53.4919 30.9684 53.979 31.8249 54.7738 32.2973L64.039 37.8056C66.3152 39.1589 67.1363 42.056 65.908 44.4024C64.7092 46.6926 61.9588 47.6866 59.5731 46.6917L38.0949 37.7362C33.1615 35.6791 27.8695 34.6201 22.5243 34.6201H16.9102V6.85547Z" fill="#FFCDAC"/>
<path d="M16.9102 2.28516H2.28516V40.4473H16.9102V2.28516Z" fill="#FEA02C"/>
<path d="M19.1953 40.4473V36.9053H21.4805V69.4722C21.4805 70.734 22.5038 71.7573 23.7656 71.7573H102.375C103.637 71.7573 104.66 70.734 104.66 69.4722V27.4148C104.66 26.1527 103.637 25.1296 102.375 25.1296H100.135L68.1269 7.956C63.9985 5.74123 59.34 4.57031 54.6552 4.57031H19.1953V2.28516C19.1953 1.02306 18.172 0 16.9102 0H2.28516C1.02329 0 0 1.02306 0 2.28516V40.4473C0 41.7094 1.02329 42.7324 2.28516 42.7324H16.9102C18.172 42.7324 19.1953 41.7094 19.1953 40.4473ZM61.5171 49.3706C61.8478 49.3706 62.1761 49.3475 62.5006 49.3029C62.6517 49.3342 62.8078 49.3512 62.9682 49.3512C64.1229 49.3512 65.0982 50.1398 65.0982 51.073C65.0982 52.0063 64.1226 52.7949 62.9682 52.7949C62.2771 52.7949 61.6236 52.5159 61.2205 52.0488C60.396 51.0936 58.9527 50.9873 57.9975 51.8123C57.0423 52.637 56.9363 54.0801 57.7612 55.0352C58.5423 55.9399 59.5553 56.6072 60.6878 56.9909C60.7358 58.2105 61.7371 59.1853 62.9684 59.1853C64.2003 59.1853 65.2019 58.2098 65.249 56.9893C67.8241 56.1111 69.6687 53.7907 69.6687 51.0728C69.6687 49.1919 68.7841 47.5022 67.3865 46.3482C67.586 46.0699 67.7688 45.7742 67.9324 45.4616C69.2192 43.0034 68.9635 40.1301 67.4862 37.975C71.5364 39.7336 74.377 43.7703 74.377 48.4599C74.377 54.7601 69.2514 59.8857 62.9513 59.8857C56.6511 59.8857 51.5255 54.7601 51.5255 48.4599C51.5255 47.5991 51.6228 46.7541 51.8091 45.9298L58.6936 48.8004C59.6188 49.1866 60.5763 49.3706 61.5171 49.3706ZM62.9513 64.4565C71.7715 64.4565 78.9473 57.2806 78.9473 48.4604C78.9473 39.6401 71.7715 32.4643 62.9513 32.4643C61.9577 32.4643 60.9664 32.5619 59.9956 32.7433L55.9418 30.3332C55.8403 30.2728 55.777 30.1618 55.777 30.0439C55.777 29.8583 55.9278 29.7075 56.1136 29.7075H90.1803C91.1204 34.7177 95.0787 38.6742 100.09 39.6111V57.2758C95.0762 58.2132 91.1163 62.1732 90.1789 67.187H35.962C35.0246 62.1732 31.0646 58.2132 26.0508 57.2758V37.1311C30.1526 37.5533 34.156 38.57 37.9992 40.1724L47.5466 44.1531C47.1567 45.5475 46.9552 46.9885 46.9552 48.4604C46.9552 57.2809 54.131 64.4565 62.9513 64.4565ZM100.09 29.6999V34.9147C97.6038 34.1555 95.6386 32.1926 94.8772 29.7075H99.5745C99.634 29.7075 99.6927 29.7045 99.7512 29.6999H100.09ZM26.0508 61.9723C28.5393 62.7321 30.5057 64.6985 31.2655 67.187H26.0508V61.9723ZM94.8751 67.187C95.6349 64.6985 97.6013 62.7321 100.09 61.9723V67.187H94.8751ZM54.6552 9.14062C58.5887 9.14062 62.4999 10.1237 65.9663 11.9834L90.4682 25.1296H61.0454C60.9954 25.1296 60.9465 25.134 60.8974 25.1372H56.1134C53.4078 25.1372 51.2065 27.3382 51.2065 30.0439C51.2065 31.7655 52.1256 33.3816 53.6057 34.2616L62.871 39.7699C64.1039 40.5028 64.5484 42.0722 63.8831 43.3428C63.2294 44.5923 61.7545 45.1257 60.4524 44.5827L39.7581 35.9542C33.9983 33.5527 27.9141 32.3352 21.6742 32.3352H19.1953V9.14062H54.6552ZM14.625 38.1621H4.57031V4.57031H14.625V38.1621Z" fill="black"/>
<path d="M9.61343 30.0882H9.5835C8.32163 30.0882 7.29834 31.1113 7.29834 32.3734C7.29834 33.6354 8.32163 34.6585 9.5835 34.6585H9.61343C10.8753 34.6585 11.8986 33.6354 11.8986 32.3734C11.8986 31.1113 10.8755 30.0882 9.61343 30.0882Z" fill="black"/>
<path d="M114.714 74.2676H100.089C98.8276 74.2676 97.8043 75.2909 97.8043 76.5527V81.1827L87.0227 77.4956C79.976 75.0854 72.36 75.4527 65.5774 78.5299L50.2237 85.4959C48.2568 86.3883 46.7658 87.9973 46.0258 90.0267C45.3376 91.9142 45.3814 93.9412 46.1396 95.7832C45.4925 95.7748 44.8483 95.6144 44.2738 95.3157L25.0216 85.3069C22.9188 84.2133 20.5208 84.0199 18.2697 84.7612C16.0183 85.503 14.205 87.0841 13.1637 89.2132C11.1512 93.3285 12.6884 98.3358 16.6634 100.613L39.8148 113.874C42.5881 115.462 45.7349 116.288 48.907 116.288C49.891 116.288 50.8779 116.208 51.856 116.047L97.8043 108.494V114.715C97.8043 115.977 98.8276 117 100.089 117H114.714C115.976 117 117 115.977 117 114.715V76.5527C117 75.2909 115.976 74.2676 114.714 74.2676ZM51.1147 111.538C48.0164 112.048 44.8106 111.469 42.0867 109.908L18.9353 96.6475C17.0432 95.5639 16.3115 93.1804 17.2694 91.2218C17.7651 90.2081 18.628 89.4556 19.6997 89.1028C20.771 88.7498 21.9122 88.8418 22.9133 89.3626L42.166 99.3716C43.4048 100.015 44.7973 100.356 46.1931 100.356H50.8443C50.9211 100.356 50.997 100.352 51.0719 100.344C51.8578 100.599 52.6837 100.736 53.523 100.736C54.3717 100.736 55.2325 100.6 56.0755 100.315L71.4192 95.1231C72.6146 94.7184 73.2558 93.4215 72.8515 92.2259C72.4468 91.0308 71.1502 90.3894 69.9544 90.7936L54.6107 95.9852C52.9784 96.5376 51.1885 95.7816 50.446 94.227C50.0486 93.3948 50.0036 92.4595 50.3197 91.5929C50.6357 90.7264 51.2721 90.0395 52.1121 89.6583L67.4659 82.6923C73.1833 80.0984 79.6032 79.7885 85.5435 81.8205L97.8043 86.0131V103.863L51.1147 111.538ZM112.429 112.43H102.375V78.8379H112.429V112.43Z" fill="black"/>
<path d="M107.388 86.9118H107.418C108.68 86.9118 109.703 85.8885 109.703 84.6266C109.703 83.3648 108.68 82.3415 107.418 82.3415H107.388C106.126 82.3415 105.103 83.3648 105.103 84.6266C105.103 85.8885 106.126 86.9118 107.388 86.9118Z" fill="black"/>
<path d="M41.7352 46.186H36.9053C35.6434 46.186 34.6201 47.2091 34.6201 48.4712C34.6201 49.7333 35.6434 50.7563 36.9053 50.7563H41.7352C42.997 50.7563 44.0203 49.7333 44.0203 48.4712C44.0203 47.2091 42.997 46.186 41.7352 46.186Z" fill="black"/>
<path d="M84.1758 50.7563H89.0057C90.2675 50.7563 91.2908 49.7333 91.2908 48.4712C91.2908 47.2091 90.2675 46.186 89.0057 46.186H84.1758C82.9139 46.186 81.8906 47.2091 81.8906 48.4712C81.8906 49.7333 82.9137 50.7563 84.1758 50.7563Z" fill="black"/>
<path d="M35.0913 18.2812H52.0337C53.2955 18.2812 54.3188 17.2582 54.3188 15.9961C54.3188 14.734 53.2955 13.7109 52.0337 13.7109H35.0913C33.8294 13.7109 32.8062 14.734 32.8062 15.9961C32.8062 17.2582 33.8294 18.2812 35.0913 18.2812Z" fill="black"/>
<path d="M27.04 18.2812C27.641 18.2812 28.2306 18.0367 28.6554 17.6117C29.0827 17.1867 29.3252 16.5971 29.3252 15.9961C29.3252 15.3951 29.0827 14.8055 28.6554 14.3805C28.2306 13.9554 27.6431 13.7109 27.04 13.7109C26.439 13.7109 25.8495 13.9554 25.4244 14.3805C24.9994 14.8055 24.7549 15.3951 24.7549 15.9961C24.7549 16.5971 24.9992 17.1867 25.4244 17.6117C25.8497 18.0367 26.439 18.2812 27.04 18.2812Z" fill="black"/>
</g>
<defs>
<clipPath id="clip0_18_6394">
<rect width="117" height="117" fill="white"/>
</clipPath>
</defs>
</svg>
