<svg width="258" height="117" viewBox="0 0 258 117" fill="none" xmlns="http://www.w3.org/2000/svg">
<path d="M25.533 85.5405H27.1147L25.6334 91.6917C25.4074 92.5956 25.4576 93.2986 25.7589 93.7505C26.0602 94.2025 26.6126 94.4284 27.4411 94.4284C28.2445 94.4284 28.9224 94.2025 29.4497 93.7505C29.9769 93.2986 30.3284 92.5956 30.5544 91.6917L32.0357 85.5405H33.6426L32.1362 91.8424C31.8098 93.1982 31.2323 94.2276 30.3787 94.9055C29.5501 95.5834 28.4454 95.9349 27.0896 95.9349C25.7338 95.9349 24.8048 95.6085 24.3027 94.9306C23.8005 94.2527 23.7001 93.2233 24.0265 91.8675L25.533 85.5405ZM33.4166 95.6587L35.9274 85.1387L40.6978 91.3151C40.8233 91.4909 40.9488 91.6666 41.0744 91.8675C41.1999 92.0684 41.3254 92.2943 41.4761 92.5454L43.1583 85.5405H44.6396L42.1289 96.0353L37.2581 89.7334L36.8815 89.2061C36.7559 89.0053 36.6555 88.8295 36.5802 88.6035L34.898 95.6336H33.4166V95.6587ZM44.5141 95.6587L46.9244 85.5405H48.5312L46.1209 95.6587H44.5141ZM48.4057 95.6587L50.816 85.5405H56.3145L55.9881 86.9465H52.0965L51.4939 89.4572H55.3855L55.034 90.8883H51.1424L50.0126 95.6336H48.4057V95.6587ZM55.6868 95.6587L58.0971 85.5405H59.704L57.2937 95.6587H55.6868ZM59.5784 95.6587L61.9888 85.5405H67.4873L67.1609 86.9465H63.2692L62.6666 89.4823H66.5583L66.2068 90.9134H62.3151L61.5368 94.1774H65.4284L65.077 95.6587H59.5784ZM66.9349 95.6587L69.3452 85.5405H71.5044C72.9104 85.5405 73.8896 85.6158 74.4169 85.7664C74.9441 85.9171 75.396 86.143 75.7476 86.4945C76.1995 86.9465 76.5008 87.5239 76.6263 88.2018C76.7518 88.9048 76.7016 89.7083 76.5008 90.587C76.2748 91.4909 75.9484 92.2692 75.4965 92.9722C75.0445 93.6752 74.4671 94.2276 73.7892 94.6795C73.287 95.031 72.7347 95.257 72.1321 95.4076C71.5546 95.5583 70.6759 95.6336 69.5209 95.6336H66.9349V95.6587ZM68.8933 94.1523H70.2491C70.9772 94.1523 71.5546 94.102 71.9563 94.0016C72.3581 93.9012 72.7096 93.7254 73.036 93.4995C73.4879 93.1731 73.8645 92.7714 74.1658 92.2692C74.4671 91.7922 74.693 91.2147 74.8437 90.5619C74.9943 89.9091 75.0445 89.3568 74.9692 88.8797C74.8939 88.4027 74.7181 87.9759 74.4169 87.6495C74.1909 87.3984 73.9147 87.2478 73.5381 87.1473C73.1615 87.0469 72.584 86.9967 71.7555 86.9967H70.6006L68.8933 94.1523ZM83.8823 91.1143L82.8027 95.6587H81.2963L83.7066 85.5405H86.142C86.8701 85.5405 87.3722 85.5907 87.6986 85.666C88.025 85.7413 88.2761 85.8668 88.4769 86.0677C88.728 86.2937 88.9038 86.6201 88.9791 87.0218C89.0544 87.4235 89.0293 87.8503 88.9289 88.3274C88.8033 88.8044 88.6276 89.2563 88.3514 89.6581C88.0752 90.0598 87.7488 90.3862 87.3973 90.6121C87.096 90.7879 86.7697 90.9385 86.4182 91.0138C86.0667 91.0892 85.5143 91.1394 84.8113 91.1394H83.8823V91.1143ZM84.3091 89.7585H84.7108C85.5896 89.7585 86.2173 89.658 86.5688 89.4572C86.9203 89.2563 87.1463 88.9048 87.2718 88.4027C87.3973 87.8754 87.322 87.4737 87.0709 87.2729C86.7948 87.0469 86.2424 86.9465 85.4139 86.9465H85.0121L84.3091 89.7585ZM94.3772 95.6587L93.875 93.0475H89.9583L88.2008 95.6587H86.5186L93.7997 85.1387L96.0593 95.6587H94.3772ZM90.9124 91.6666H93.649L93.1971 89.3568C93.172 89.2061 93.1469 89.0304 93.1469 88.8546C93.1218 88.6538 93.1218 88.4529 93.1218 88.2269C93.0214 88.4529 92.9209 88.6538 92.7954 88.8546C92.695 89.0555 92.5945 89.2312 92.4941 89.3819L90.9124 91.6666ZM98.3692 95.6587L99.4739 91.039L97.4654 85.5656H99.1475L100.403 89.0053C100.428 89.1057 100.453 89.2061 100.503 89.3568C100.554 89.5074 100.579 89.6581 100.629 89.8087L100.93 89.3568C101.031 89.2061 101.131 89.0806 101.231 88.955L104.169 85.5656H105.776L101.081 91.0138L99.9761 95.6336H98.3692V95.6587ZM113.66 90.6623C113.66 90.587 113.685 90.3611 113.735 90.0096C113.76 89.7083 113.785 89.4823 113.81 89.2814C113.71 89.5074 113.609 89.7334 113.484 89.9844C113.358 90.2104 113.208 90.4615 113.032 90.6875L109.165 96.0855L107.91 90.587C107.86 90.3611 107.81 90.1351 107.784 89.9342C107.759 89.7334 107.734 89.5074 107.734 89.3066C107.684 89.5074 107.609 89.7334 107.533 89.9844C107.458 90.2104 107.358 90.4615 107.232 90.7126L104.972 95.6838H103.491L108.337 85.1387L109.718 91.516C109.743 91.6164 109.768 91.7922 109.793 92.0181C109.818 92.2441 109.868 92.5454 109.919 92.8969C110.094 92.5956 110.32 92.2441 110.622 91.7922C110.697 91.6666 110.772 91.5913 110.797 91.516L115.166 85.1387L115.015 95.6838H113.534L113.66 90.6623ZM116.321 95.6587L118.731 85.5405H124.23L123.903 86.9465H120.012L119.409 89.4823H123.301L122.949 90.9134H119.058L118.279 94.1774H122.171L121.819 95.6587H116.321ZM123.652 95.6587L126.163 85.1387L130.933 91.3151C131.059 91.4909 131.184 91.6666 131.31 91.8675C131.436 92.0684 131.561 92.2943 131.712 92.5454L133.394 85.5405H134.875L132.364 96.0353L127.494 89.7334L127.117 89.2061C126.992 89.0053 126.891 88.8295 126.816 88.6035L125.134 95.6336H123.652V95.6587ZM139.997 86.9214L137.913 95.6336H136.306L138.39 86.9214H135.779L136.105 85.5153H142.935L142.608 86.9214H139.997ZM141.679 93.625L143.11 93.0224C143.136 93.4744 143.261 93.8259 143.537 94.0518C143.813 94.2778 144.19 94.4033 144.692 94.4033C145.169 94.4033 145.571 94.2778 145.922 94.0016C146.274 93.7254 146.5 93.3739 146.6 92.922C146.751 92.3194 146.399 91.7922 145.546 91.3402C145.42 91.2649 145.345 91.2147 145.27 91.1896C144.316 90.6372 143.713 90.1602 143.462 89.7083C143.211 89.2563 143.161 88.7291 143.311 88.1014C143.512 87.2729 143.939 86.6201 144.617 86.0928C145.295 85.5907 146.048 85.3145 146.952 85.3145C147.68 85.3145 148.257 85.4651 148.684 85.7413C149.111 86.0175 149.337 86.4443 149.412 86.9716L148.006 87.6244C147.881 87.298 147.73 87.072 147.529 86.9214C147.328 86.7707 147.077 86.6954 146.776 86.6954C146.349 86.6954 145.973 86.8209 145.671 87.0469C145.37 87.2729 145.169 87.5741 145.069 87.9759C144.918 88.5784 145.345 89.1559 146.324 89.6832C146.399 89.7334 146.45 89.7585 146.5 89.7836C147.354 90.2355 147.931 90.6875 148.182 91.1394C148.433 91.5913 148.483 92.1186 148.333 92.7965C148.107 93.7505 147.63 94.5038 146.902 95.0812C146.174 95.6336 145.32 95.9349 144.316 95.9349C143.487 95.9349 142.834 95.734 142.382 95.3323C141.88 94.9306 141.654 94.3531 141.679 93.625ZM153.505 95.6587L155.915 85.5405H157.522L155.112 95.6587H153.505ZM157.422 95.6587L159.932 85.1387L164.703 91.3151C164.828 91.4909 164.954 91.6666 165.079 91.8675C165.205 92.0684 165.33 92.2943 165.481 92.5454L167.163 85.5405H168.645L166.134 96.0353L161.263 89.7334L160.886 89.2061C160.761 89.0053 160.66 88.8295 160.585 88.6035L158.903 95.6336H157.422V95.6587ZM173.766 86.9214L171.683 95.6336H170.076L172.16 86.9214H169.548L169.875 85.5153H176.704L176.378 86.9214H173.766ZM175.499 95.6587L177.909 85.5405H183.433L183.106 86.9465H179.215L178.612 89.4823H182.504L182.152 90.9134H178.261L177.482 94.1774H181.374L181.022 95.6587H175.499ZM185.416 91.1143L184.337 95.6336H182.83L185.24 85.5153H187.475C188.128 85.5153 188.63 85.5656 188.956 85.6409C189.308 85.7162 189.584 85.8668 189.785 86.0677C190.036 86.3188 190.187 86.6201 190.262 87.0218C190.337 87.3984 190.312 87.8252 190.212 88.3023C190.011 89.1057 189.684 89.7585 189.182 90.2104C188.68 90.6623 188.053 90.9385 187.299 91.039L189.584 95.6336H187.776L185.592 91.1143H185.416ZM185.818 89.8338H186.119C186.973 89.8338 187.55 89.7334 187.877 89.5325C188.203 89.3317 188.429 88.9802 188.555 88.4529C188.68 87.9005 188.63 87.4988 188.379 87.2729C188.128 87.0469 187.601 86.9214 186.797 86.9214H186.496L185.818 89.8338ZM190.563 95.6587L192.974 85.5405H198.472L198.146 86.9465H194.254L193.651 89.4572H197.543L197.192 90.8883H193.3L192.17 95.6336H190.563V95.6587ZM203.82 95.6587L203.318 93.0475H199.401L197.643 95.6587H195.961L203.242 85.1387L205.502 95.6587H203.82ZM200.33 91.6666H203.067L202.615 89.3568C202.59 89.2061 202.565 89.0304 202.565 88.8546C202.539 88.6538 202.539 88.4529 202.539 88.2269C202.439 88.4529 202.339 88.6538 202.213 88.8546C202.113 89.0555 202.012 89.2312 201.912 89.3819L200.33 91.6666ZM215.947 88.001C215.595 87.5993 215.168 87.298 214.716 87.1222C214.265 86.9214 213.762 86.8209 213.185 86.8209C212.105 86.8209 211.151 87.1724 210.298 87.8754C209.444 88.5784 208.892 89.5074 208.615 90.6372C208.364 91.7169 208.465 92.6207 208.967 93.3488C209.444 94.0518 210.197 94.4033 211.201 94.4033C211.779 94.4033 212.356 94.3029 212.934 94.0769C213.511 93.8761 214.089 93.5497 214.691 93.1229L214.239 94.9808C213.737 95.3072 213.21 95.5332 212.658 95.6838C212.105 95.8344 211.553 95.9098 210.95 95.9098C210.197 95.9098 209.519 95.7842 208.942 95.5332C208.364 95.2821 207.887 94.9055 207.511 94.4033C207.134 93.9263 206.908 93.3488 206.808 92.696C206.707 92.0432 206.732 91.3402 206.933 90.587C207.109 89.8338 207.41 89.1559 207.812 88.5031C208.214 87.8503 208.741 87.2729 209.343 86.7958C209.946 86.2937 210.599 85.9171 211.302 85.666C212.005 85.4149 212.708 85.2894 213.436 85.2894C214.013 85.2894 214.541 85.3647 215.043 85.5405C215.52 85.7162 215.972 85.9673 216.374 86.3188L215.947 88.001ZM216.097 95.6587L218.508 85.5405H224.006L223.68 86.9465H219.788L219.186 89.4823H223.077L222.726 90.9134H218.834L218.056 94.1774H221.947L221.596 95.6587H216.097Z" fill="white"/>
<path d="M186.873 76.7279H175.851L191.166 21.4165H202.188L186.873 76.7279ZM181.148 23.1489C180.395 22.0944 179.215 21.5671 177.608 21.5671H117.049L114.061 32.4135H169.147L165.933 43.9879H121.87V43.9628H110.848L101.709 76.9789H112.731L118.857 54.8343H168.394C169.95 54.8343 171.407 54.307 172.762 53.2525C174.118 52.198 175.022 50.8924 175.449 49.3358L181.575 27.1912C182.052 25.5341 181.901 24.2034 181.148 23.1489ZM95.2812 73.263C94.6786 75.4474 92.67 76.9789 90.4104 76.9789H33.5926C32.0359 76.9789 30.881 76.4517 30.1278 75.3972C29.3746 74.3427 29.1988 73.0371 29.6507 71.4804L43.51 21.5671H54.5321L42.1542 66.1577H86.2426L98.6205 21.5671H109.643L95.2812 73.263Z" fill="white"/>
<path d="M221.22 21.517L235.154 49.2355L205.854 76.9539L221.22 21.517Z" fill="#098041"/>
<path d="M211.427 21.517L225.362 49.2355L196.037 76.9539L211.427 21.517Z" fill="#E97626"/>
</svg>
