<svg width="223" height="39" viewBox="0 0 223 39" fill="none" xmlns="http://www.w3.org/2000/svg">
<path d="M77.9351 0V38.297H70.0812L54.8409 16.1939H54.5978V38.297H45.3415V19.1485V0H53.3076L68.3795 22.0657H68.6974V0H77.9351Z" fill="white" fill-opacity="0.3"/>
<path d="M102.39 11.7169C102.268 10.3785 101.723 9.33821 100.756 8.59602C99.8008 7.84167 98.4358 7.46449 96.6607 7.46449C95.4854 7.46449 94.5061 7.61657 93.7226 7.92075C92.9391 8.22493 92.3515 8.64469 91.9597 9.18004C91.568 9.70322 91.366 10.3055 91.3537 10.9868C91.3292 11.5465 91.4394 12.0393 91.6843 12.4651C91.9413 12.891 92.3086 13.2682 92.786 13.5967C93.2757 13.913 93.8634 14.1929 94.5489 14.4362C95.2345 14.6795 96.0057 14.8925 96.8627 15.075L100.095 15.805C101.955 16.2065 103.596 16.7419 105.016 17.411C106.448 18.0802 107.648 18.8772 108.615 19.8019C109.594 20.7266 110.335 21.7912 110.837 22.9957C111.339 24.2003 111.596 25.5508 111.608 27.0474C111.596 29.4078 110.996 31.4336 109.809 33.1248C108.621 34.816 106.913 36.1118 104.685 37.0122C102.47 37.9125 99.7946 38.3627 96.6607 38.3627C93.5145 38.3627 90.7722 37.8943 88.434 36.9574C86.0958 36.0206 84.2778 34.597 82.9801 32.6868C81.6825 30.7766 81.0153 28.3614 80.9786 25.4413H89.6827C89.7561 26.6458 90.0805 27.6496 90.6559 28.4526C91.2313 29.2557 92.0209 29.864 93.0248 30.2777C94.0409 30.6914 95.2161 30.8982 96.5505 30.8982C97.7747 30.8982 98.8153 30.734 99.6722 30.4055C100.541 30.0769 101.209 29.6207 101.674 29.0367C102.139 28.4526 102.378 27.7835 102.39 27.0291C102.378 26.3234 102.157 25.7211 101.729 25.2223C101.3 24.7113 100.639 24.2733 99.7457 23.9083C98.8642 23.5311 97.738 23.1843 96.3669 22.868L92.4371 21.9554C89.1808 21.2133 86.616 20.0148 84.743 18.3601C82.87 16.6932 81.9396 14.4423 81.9518 11.6074C81.9396 9.29563 82.5639 7.26981 83.8248 5.52992C85.0858 3.79004 86.8303 2.43341 89.0583 1.46005C91.2864 0.486683 93.8266 0 96.679 0C99.5926 0 102.121 0.492765 104.263 1.4783C106.418 2.45166 108.089 3.82045 109.276 5.58468C110.464 7.3489 111.07 9.39296 111.094 11.7169H102.39Z" fill="white" fill-opacity="0.3"/>
<path d="M116.199 0.511016H127.456L137.004 23.6527H137.445L146.994 0.511016H158.251V37.8882H149.4V14.929H149.087L140.053 37.6509H134.397L125.362 14.8012H125.05V37.8882H116.199V0.511016Z" fill="white" fill-opacity="0.3"/>
<path d="M163.92 37.8882V0.511016H179.602C182.418 0.511016 184.775 0.906445 186.672 1.6973C188.582 2.48816 190.014 3.59536 190.969 5.01891C191.936 6.44245 192.42 8.09109 192.42 9.96481C192.42 11.3884 192.12 12.6598 191.52 13.7792C190.92 14.8864 190.094 15.805 189.041 16.535C187.988 17.265 186.77 17.7761 185.387 18.0681V18.4331C186.905 18.5061 188.306 18.9137 189.592 19.6559C190.89 20.3981 191.93 21.4323 192.714 22.7585C193.497 24.0725 193.889 25.6299 193.889 27.4306C193.889 29.4382 193.375 31.2328 192.346 32.8145C191.318 34.3841 189.831 35.6251 187.884 36.5377C185.938 37.438 183.575 37.8882 180.796 37.8882H163.92ZM173.01 30.6062H178.629C180.6 30.6062 182.051 30.2351 182.981 29.4929C183.924 28.7507 184.395 27.7165 184.395 26.3903C184.395 25.4291 184.169 24.6018 183.716 23.9083C183.263 23.2026 182.62 22.6611 181.788 22.284C180.955 21.8946 179.957 21.6999 178.794 21.6999H173.01V30.6062ZM173.01 15.878H178.041C179.033 15.878 179.914 15.7137 180.686 15.3852C181.457 15.0567 182.057 14.5822 182.485 13.9617C182.926 13.3412 183.146 12.5929 183.146 11.7169C183.146 10.4637 182.7 9.47813 181.806 8.76028C180.912 8.04242 179.706 7.68349 178.188 7.68349H173.01V15.878Z" fill="white" fill-opacity="0.3"/>
<path d="M198.259 37.8882V0.511016H207.349V30.5515H222.994V37.8882H198.259Z" fill="white" fill-opacity="0.3"/>
<path d="M34.6689 0.177306C38.9113 0.177306 38.9113 0.177306 40.1839 1.02577C40.4875 1.63281 40.4242 2.15039 40.4259 2.82921C40.4265 2.97246 40.4271 3.11571 40.4278 3.2633C40.4296 3.74562 40.4299 4.22793 40.4302 4.71025C40.4312 5.05515 40.4323 5.40005 40.4334 5.74495C40.4362 6.68373 40.4376 7.6225 40.4385 8.56128C40.4391 9.14763 40.44 9.73398 40.441 10.3203C40.4439 12.1544 40.4459 13.9885 40.4467 15.8226C40.4477 17.9406 40.4514 20.0585 40.4576 22.1765C40.4621 23.8129 40.4643 25.4493 40.4646 27.0858C40.4648 28.0634 40.466 29.041 40.4698 30.0187C40.4733 30.9386 40.4738 31.8586 40.4719 32.7785C40.4718 33.1159 40.4727 33.4533 40.4748 33.7908C40.4775 34.252 40.4762 34.7131 40.474 35.1743C40.4745 35.5612 40.4745 35.5612 40.475 35.9559C40.3867 36.745 40.1718 37.2589 39.7597 37.9339C38.2406 38.6935 36.3673 38.1461 34.6689 38.1461C34.6689 34.9961 34.6689 31.8462 34.6689 28.6008C28.9991 28.6008 23.3292 28.6008 17.4875 28.6008C17.4875 27.3409 17.4875 26.0809 17.4875 24.7827C21.1275 24.7827 24.7674 24.7827 28.5176 24.7827C28.5176 21.1428 28.5176 17.5029 28.5176 13.7527C24.8777 13.7527 21.2378 13.7527 17.4875 13.7527C17.4875 12.4928 17.4875 11.2328 17.4875 9.93464C23.1574 9.93464 28.8273 9.93464 34.6689 9.93464C34.6689 6.71472 34.6689 3.4948 34.6689 0.177306Z" fill="white" fill-opacity="0.3"/>
<path d="M7.6159 0.20308C7.6159 12.7442 7.63813 25.2597 7.63813 38.1809C5.63397 38.1809 3.62981 38.1809 1.56491 38.1809C0.0120526 36.9866 0.0120526 36.9866 0.0112194 35.6447C0.00926095 35.4989 0.00730262 35.3531 0.00528483 35.2029C0.000436095 34.7156 0.00542671 34.2287 0.0104149 33.7415C0.00899607 33.3916 0.00698597 33.0418 0.00442921 32.6919C-0.000683007 31.7427 0.00289068 30.7935 0.00831872 29.8442C0.0128416 28.8507 0.0104098 27.8572 0.00900374 26.8637C0.00775563 25.1953 0.0121372 23.527 0.0198503 21.8586C0.0286985 19.9298 0.0286943 18.0011 0.023932 16.0723C0.0195524 14.2167 0.021411 12.3611 0.0261229 10.5056C0.0280199 9.71593 0.0277342 8.92633 0.0256964 8.1367C0.0235812 7.2068 0.0269281 6.27701 0.0344885 5.34712C0.0363893 5.0059 0.0364154 4.66466 0.034429 4.32343C0.0320292 3.85749 0.0364321 3.39187 0.0425587 2.92596C0.0433336 2.66529 0.0441082 2.40462 0.0449065 2.13605C0.210954 1.32238 0.545347 1.12069 1.28886 0.53915C3.18363 -0.18947 5.49747 0.20308 7.6159 0.20308Z" fill="white" fill-opacity="0.3"/>
</svg>
