<svg width="894" height="138" viewBox="0 0 894 138" fill="none" xmlns="http://www.w3.org/2000/svg">
<path d="M7.40692 36.7794L-3.38226e-05 11.4425H6.48744L10.8805 29.6789L15.9888 11.4425H23.2425L28.3507 29.6789L32.7949 11.4425H39.2824L31.8243 36.7794H25.0304L19.6156 17.8278L14.2009 36.7794H7.40692ZM54.8206 37.3924C52.2665 37.3924 50.0018 36.8475 48.0266 35.7577C46.0515 34.668 44.502 33.1355 43.3781 31.1603C42.2543 29.1851 41.6924 26.9034 41.6924 24.3153C41.6924 21.693 42.2373 19.3603 43.3271 17.317C44.4509 15.2737 45.9833 13.6901 47.9245 12.5663C49.8997 11.4084 52.2154 10.8295 54.8717 10.8295C57.3577 10.8295 59.5542 11.3744 61.4613 12.4641C63.3684 13.5539 64.8498 15.0523 65.9055 16.9594C66.9953 18.8324 67.5401 20.9268 67.5401 23.2425C67.5401 23.6171 67.5231 24.0088 67.4891 24.4174C67.4891 24.8261 67.472 25.2518 67.438 25.6945H48.1799C48.3161 27.6697 48.9972 29.2192 50.2232 30.343C51.4832 31.4668 52.9987 32.0287 54.7695 32.0287C56.0977 32.0287 57.2045 31.7392 58.0899 31.1603C59.0094 30.5473 59.6905 29.7641 60.1332 28.8105H66.7739C66.2971 30.4111 65.4968 31.8755 64.373 33.2036C63.2833 34.4977 61.9211 35.5193 60.2864 36.2685C58.6858 37.0178 56.8639 37.3924 54.8206 37.3924ZM54.8717 16.1421C53.2711 16.1421 51.8578 16.6018 50.6318 17.5213C49.4059 18.4067 48.6226 19.7689 48.2821 21.6079H60.8994C60.7973 19.9392 60.1843 18.6111 59.0604 17.6235C57.9366 16.6359 56.5404 16.1421 54.8717 16.1421ZM73.0395 36.7794V1.44126e-05H79.578V36.7794H73.0395ZM98.6721 37.3924C96.0839 37.3924 93.8022 36.8305 91.827 35.7066C89.8519 34.5828 88.2853 33.0163 87.1275 31.0071C86.0036 28.9978 85.4417 26.6991 85.4417 24.1109C85.4417 21.5228 86.0036 19.224 87.1275 17.2148C88.2853 15.2056 89.8519 13.639 91.827 12.5152C93.8022 11.3914 96.0839 10.8295 98.6721 10.8295C101.907 10.8295 104.632 11.6809 106.845 13.3836C109.059 15.0523 110.472 17.368 111.085 20.3308H104.189C103.848 19.1048 103.167 18.1513 102.146 17.4702C101.158 16.7551 99.9832 16.3975 98.621 16.3975C96.8161 16.3975 95.2836 17.0786 94.0236 18.4408C92.7636 19.803 92.1335 21.693 92.1335 24.1109C92.1335 26.5288 92.7636 28.4189 94.0236 29.7811C95.2836 31.1433 96.8161 31.8244 98.621 31.8244C99.9832 31.8244 101.158 31.4838 102.146 30.8027C103.167 30.1216 103.848 29.1511 104.189 27.891H111.085C110.472 30.7516 109.059 33.0504 106.845 34.7872C104.632 36.524 101.907 37.3924 98.6721 37.3924ZM129.046 37.3924C126.594 37.3924 124.381 36.8305 122.405 35.7066C120.464 34.5828 118.915 33.0333 117.757 31.0581C116.633 29.0489 116.071 26.7332 116.071 24.1109C116.071 21.4887 116.65 19.19 117.808 17.2148C118.966 15.2056 120.515 13.639 122.457 12.5152C124.432 11.3914 126.645 10.8295 129.097 10.8295C131.515 10.8295 133.695 11.3914 135.636 12.5152C137.611 13.639 139.161 15.2056 140.284 17.2148C141.442 19.19 142.021 21.4887 142.021 24.1109C142.021 26.7332 141.442 29.0489 140.284 31.0581C139.161 33.0333 137.611 34.5828 135.636 35.7066C133.661 36.8305 131.464 37.3924 129.046 37.3924ZM129.046 31.7222C130.749 31.7222 132.23 31.0922 133.49 29.8322C134.75 28.5381 135.38 26.631 135.38 24.1109C135.38 21.5909 134.75 19.7008 133.49 18.4408C132.23 17.1467 130.766 16.4996 129.097 16.4996C127.36 16.4996 125.862 17.1467 124.602 18.4408C123.376 19.7008 122.763 21.5909 122.763 24.1109C122.763 26.631 123.376 28.5381 124.602 29.8322C125.862 31.0922 127.343 31.7222 129.046 31.7222ZM147.867 36.7794V11.4425H153.64L154.201 14.865C155.019 13.639 156.092 12.6685 157.42 11.9533C158.782 11.2041 160.348 10.8295 162.119 10.8295C166.036 10.8295 168.811 12.3449 170.446 15.3758C171.365 13.9796 172.591 12.8728 174.124 12.0555C175.69 11.2382 177.393 10.8295 179.232 10.8295C182.535 10.8295 185.072 11.8171 186.843 13.7923C188.614 15.7675 189.499 18.6621 189.499 22.4763V36.7794H182.961V23.0893C182.961 20.9098 182.535 19.2411 181.684 18.0832C180.867 16.9253 179.589 16.3464 177.853 16.3464C176.082 16.3464 174.651 16.9934 173.562 18.2875C172.506 19.5816 171.978 21.3865 171.978 23.7023V36.7794H165.44V23.0893C165.44 20.9098 165.014 19.2411 164.163 18.0832C163.311 16.9253 162 16.3464 160.229 16.3464C158.492 16.3464 157.079 16.9934 155.989 18.2875C154.934 19.5816 154.406 21.3865 154.406 23.7023V36.7794H147.867ZM208.018 37.3924C205.464 37.3924 203.199 36.8475 201.224 35.7577C199.249 34.668 197.699 33.1355 196.576 31.1603C195.452 29.1851 194.89 26.9034 194.89 24.3153C194.89 21.693 195.435 19.3603 196.525 17.317C197.648 15.2737 199.181 13.6901 201.122 12.5663C203.097 11.4084 205.413 10.8295 208.069 10.8295C210.555 10.8295 212.752 11.3744 214.659 12.4641C216.566 13.5539 218.047 15.0523 219.103 16.9594C220.193 18.8324 220.738 20.9268 220.738 23.2425C220.738 23.6171 220.721 24.0088 220.686 24.4174C220.686 24.8261 220.669 25.2518 220.635 25.6945H201.377C201.514 27.6697 202.195 29.2192 203.421 30.343C204.681 31.4668 206.196 32.0287 207.967 32.0287C209.295 32.0287 210.402 31.7392 211.287 31.1603C212.207 30.5473 212.888 29.7641 213.331 28.8105H219.971C219.495 30.4111 218.694 31.8755 217.57 33.2036C216.481 34.4977 215.119 35.5193 213.484 36.2685C211.883 37.0178 210.061 37.3924 208.018 37.3924ZM208.069 16.1421C206.469 16.1421 205.055 16.6018 203.829 17.5213C202.603 18.4067 201.82 19.7689 201.479 21.6079H214.097C213.995 19.9392 213.382 18.6111 212.258 17.6235C211.134 16.6359 209.738 16.1421 208.069 16.1421ZM249.698 36.7794C247.042 36.7794 244.913 36.1323 243.313 34.8382C241.712 33.5442 240.912 31.2454 240.912 27.9421V16.9083H236.57V11.4425H240.912L241.678 4.64852H247.451V11.4425H254.296V16.9083H247.451V27.9932C247.451 29.2192 247.706 30.0705 248.217 30.5473C248.762 30.99 249.681 31.2114 250.975 31.2114H254.142V36.7794H249.698ZM271.419 37.3924C268.967 37.3924 266.753 36.8305 264.778 35.7066C262.837 34.5828 261.287 33.0333 260.129 31.0581C259.006 29.0489 258.444 26.7332 258.444 24.1109C258.444 21.4887 259.023 19.19 260.18 17.2148C261.338 15.2056 262.888 13.639 264.829 12.5152C266.804 11.3914 269.018 10.8295 271.47 10.8295C273.888 10.8295 276.067 11.3914 278.008 12.5152C279.983 13.639 281.533 15.2056 282.657 17.2148C283.815 19.19 284.393 21.4887 284.393 24.1109C284.393 26.7332 283.815 29.0489 282.657 31.0581C281.533 33.0333 279.983 34.5828 278.008 35.7066C276.033 36.8305 273.836 37.3924 271.419 37.3924ZM271.419 31.7222C273.121 31.7222 274.603 31.0922 275.863 29.8322C277.123 28.5381 277.753 26.631 277.753 24.1109C277.753 21.5909 277.123 19.7008 275.863 18.4408C274.603 17.1467 273.138 16.4996 271.47 16.4996C269.733 16.4996 268.234 17.1467 266.974 18.4408C265.748 19.7008 265.135 21.5909 265.135 24.1109C265.135 26.631 265.748 28.5381 266.974 29.8322C268.234 31.0922 269.716 31.7222 271.419 31.7222ZM3.76304 122.806V75.1293H12.4811L34.8893 108.707V75.1293H43.6073V122.806H34.8893L12.4811 89.2962V122.806H3.76304ZM64.2925 123.624C61.3865 123.624 59.0027 123.17 57.141 122.261C55.2793 121.308 53.8944 120.059 52.9863 118.515C52.0782 116.971 51.6241 115.269 51.6241 113.407C51.6241 110.274 52.8501 107.731 55.302 105.779C57.754 103.826 61.4319 102.85 66.3358 102.85H74.9177V102.033C74.9177 99.717 74.2593 98.0142 72.9425 96.9245C71.6257 95.8347 69.9911 95.2898 68.0386 95.2898C66.2677 95.2898 64.7239 95.7212 63.4071 96.5839C62.0903 97.4012 61.273 98.6272 60.9552 100.262H52.4414C52.6684 97.8099 53.4858 95.6758 54.8934 93.8595C56.3464 92.0433 58.2081 90.6584 60.4784 89.7048C62.7487 88.7059 65.2915 88.2064 68.1067 88.2064C72.9198 88.2064 76.7113 89.4097 79.4811 91.8162C82.2509 94.2228 83.6358 97.6283 83.6358 102.033V122.806H76.2118L75.3945 117.357C74.3955 119.174 72.9879 120.672 71.1716 121.853C69.4008 123.033 67.1078 123.624 64.2925 123.624ZM66.2677 116.813C68.7651 116.813 70.6949 115.995 72.0571 114.361C73.4647 112.726 74.3501 110.705 74.7134 108.299H67.2894C64.9736 108.299 63.3163 108.73 62.3174 109.593C61.3184 110.41 60.8189 111.432 60.8189 112.658C60.8189 113.975 61.3184 114.996 62.3174 115.723C63.3163 116.449 64.6331 116.813 66.2677 116.813ZM91.9553 122.806V89.0237H99.7198L100.537 95.3579C101.763 93.1784 103.42 91.453 105.509 90.1816C107.643 88.8648 110.141 88.2064 113.001 88.2064V97.4012H110.549C108.642 97.4012 106.939 97.6964 105.441 98.2867C103.943 98.877 102.762 99.8986 101.899 101.352C101.082 102.805 100.673 104.825 100.673 107.413V122.806H91.9553ZM130.607 123.624C127.701 123.624 125.317 123.17 123.455 122.261C121.593 121.308 120.208 120.059 119.3 118.515C118.392 116.971 117.938 115.269 117.938 113.407C117.938 110.274 119.164 107.731 121.616 105.779C124.068 103.826 127.746 102.85 132.65 102.85H141.232V102.033C141.232 99.717 140.573 98.0142 139.257 96.9245C137.94 95.8347 136.305 95.2898 134.353 95.2898C132.582 95.2898 131.038 95.7212 129.721 96.5839C128.404 97.4012 127.587 98.6272 127.269 100.262H118.755C118.983 97.8099 119.8 95.6758 121.207 93.8595C122.66 92.0433 124.522 90.6584 126.792 89.7048C129.063 88.7059 131.606 88.2064 134.421 88.2064C139.234 88.2064 143.025 89.4097 145.795 91.8162C148.565 94.2228 149.95 97.6283 149.95 102.033V122.806H142.526L141.709 117.357C140.71 119.174 139.302 120.672 137.486 121.853C135.715 123.033 133.422 123.624 130.607 123.624ZM132.582 116.813C135.079 116.813 137.009 115.995 138.371 114.361C139.779 112.726 140.664 110.705 141.027 108.299H133.603C131.288 108.299 129.63 108.73 128.631 109.593C127.632 110.41 127.133 111.432 127.133 112.658C127.133 113.975 127.632 114.996 128.631 115.723C129.63 116.449 130.947 116.813 132.582 116.813ZM161.361 137.79L169.194 120.559H167.151L154.006 89.0237H163.473L172.94 112.794L182.816 89.0237H192.079L170.624 137.79H161.361ZM206.765 123.624C203.859 123.624 201.475 123.17 199.613 122.261C197.751 121.308 196.367 120.059 195.458 118.515C194.55 116.971 194.096 115.269 194.096 113.407C194.096 110.274 195.322 107.731 197.774 105.779C200.226 103.826 203.904 102.85 208.808 102.85H217.39V102.033C217.39 99.717 216.731 98.0142 215.415 96.9245C214.098 95.8347 212.463 95.2898 210.511 95.2898C208.74 95.2898 207.196 95.7212 205.879 96.5839C204.562 97.4012 203.745 98.6272 203.427 100.262H194.914C195.141 97.8099 195.958 95.6758 197.365 93.8595C198.819 92.0433 200.68 90.6584 202.951 89.7048C205.221 88.7059 207.764 88.2064 210.579 88.2064C215.392 88.2064 219.183 89.4097 221.953 91.8162C224.723 94.2228 226.108 97.6283 226.108 102.033V122.806H218.684L217.867 117.357C216.868 119.174 215.46 120.672 213.644 121.853C211.873 123.033 209.58 123.624 206.765 123.624ZM208.74 116.813C211.237 116.813 213.167 115.995 214.529 114.361C215.937 112.726 216.822 110.705 217.185 108.299H209.762C207.446 108.299 205.788 108.73 204.789 109.593C203.791 110.41 203.291 111.432 203.291 112.658C203.291 113.975 203.791 114.996 204.789 115.723C205.788 116.449 207.105 116.813 208.74 116.813ZM234.427 122.806V89.0237H242.124L242.805 94.745C243.849 92.7471 245.348 91.1578 247.3 89.9773C249.298 88.7967 251.637 88.2064 254.316 88.2064C258.493 88.2064 261.739 89.5232 264.055 92.1568C266.371 94.7904 267.529 98.6499 267.529 103.735V122.806H258.811V104.553C258.811 101.647 258.22 99.4218 257.04 97.878C255.859 96.3342 254.02 95.5623 251.523 95.5623C249.071 95.5623 247.05 96.425 245.461 98.1505C243.917 99.8759 243.145 102.282 243.145 105.37V122.806H234.427ZM287.512 123.624C284.606 123.624 282.222 123.17 280.361 122.261C278.499 121.308 277.114 120.059 276.206 118.515C275.298 116.971 274.844 115.269 274.844 113.407C274.844 110.274 276.07 107.731 278.522 105.779C280.974 103.826 284.652 102.85 289.555 102.85H298.137V102.033C298.137 99.717 297.479 98.0142 296.162 96.9245C294.845 95.8347 293.211 95.2898 291.258 95.2898C289.487 95.2898 287.944 95.7212 286.627 96.5839C285.31 97.4012 284.493 98.6272 284.175 100.262H275.661C275.888 97.8099 276.705 95.6758 278.113 93.8595C279.566 92.0433 281.428 90.6584 283.698 89.7048C285.968 88.7059 288.511 88.2064 291.326 88.2064C296.139 88.2064 299.931 89.4097 302.701 91.8162C305.47 94.2228 306.855 97.6283 306.855 102.033V122.806H299.431L298.614 117.357C297.615 119.174 296.208 120.672 294.391 121.853C292.62 123.033 290.327 123.624 287.512 123.624ZM289.487 116.813C291.985 116.813 293.915 115.995 295.277 114.361C296.684 112.726 297.57 110.705 297.933 108.299H290.509C288.193 108.299 286.536 108.73 285.537 109.593C284.538 110.41 284.039 111.432 284.039 112.658C284.039 113.975 284.538 114.996 285.537 115.723C286.536 116.449 287.853 116.813 289.487 116.813ZM331.609 122.806V75.1293H362.735V82.1446H340.327V95.2217H360.692V102.033H340.327V115.791H362.735V122.806H331.609ZM375.003 137.79L382.836 120.559H380.792L367.647 89.0237H377.114L386.582 112.794L396.458 89.0237H405.721L384.266 137.79H375.003ZM424.908 123.624C421.503 123.624 418.483 122.897 415.849 121.444C413.216 119.991 411.15 117.948 409.651 115.314C408.153 112.681 407.404 109.638 407.404 106.187C407.404 102.691 408.13 99.5808 409.583 96.8564C411.082 94.132 413.125 92.0206 415.713 90.5221C418.347 88.9783 421.434 88.2064 424.976 88.2064C428.291 88.2064 431.22 88.9329 433.762 90.3859C436.305 91.8389 438.28 93.8368 439.688 96.3796C441.141 98.877 441.867 101.669 441.867 104.757C441.867 105.257 441.845 105.779 441.799 106.324C441.799 106.869 441.777 107.436 441.731 108.026H416.054C416.235 110.66 417.143 112.726 418.778 114.224C420.458 115.723 422.479 116.472 424.84 116.472C426.611 116.472 428.086 116.086 429.267 115.314C430.493 114.497 431.401 113.452 431.991 112.181H440.846C440.21 114.315 439.143 116.268 437.645 118.039C436.192 119.764 434.375 121.126 432.196 122.125C430.062 123.124 427.632 123.624 424.908 123.624ZM424.976 95.2898C422.842 95.2898 420.958 95.9028 419.323 97.1288C417.688 98.3094 416.644 100.126 416.19 102.578H433.013C432.877 100.353 432.06 98.5818 430.561 97.265C429.063 95.9482 427.201 95.2898 424.976 95.2898ZM465.633 122.806V75.1293H474.352V94.9493H495.738V75.1293H504.456V122.806H495.738V102.033H474.352V122.806H465.633ZM529.729 123.624C526.459 123.624 523.508 122.874 520.874 121.376C518.286 119.878 516.22 117.812 514.676 115.178C513.178 112.499 512.429 109.411 512.429 105.915C512.429 102.419 513.201 99.3537 514.744 96.7201C516.288 94.0412 518.354 91.9525 520.942 90.454C523.576 88.9556 526.527 88.2064 529.797 88.2064C533.021 88.2064 535.927 88.9556 538.515 90.454C541.148 91.9525 543.214 94.0412 544.713 96.7201C546.257 99.3537 547.029 102.419 547.029 105.915C547.029 109.411 546.257 112.499 544.713 115.178C543.214 117.812 541.148 119.878 538.515 121.376C535.881 122.874 532.953 123.624 529.729 123.624ZM529.729 116.063C531.999 116.063 533.974 115.223 535.654 113.543C537.334 111.818 538.174 109.275 538.174 105.915C538.174 102.555 537.334 100.035 535.654 98.3548C533.974 96.6293 532.022 95.7666 529.797 95.7666C527.481 95.7666 525.483 96.6293 523.803 98.3548C522.168 100.035 521.351 102.555 521.351 105.915C521.351 109.275 522.168 111.818 523.803 113.543C525.483 115.223 527.458 116.063 529.729 116.063ZM568.786 123.624C565.789 123.624 563.156 123.147 560.885 122.193C558.615 121.194 556.799 119.832 555.436 118.107C554.074 116.381 553.257 114.383 552.984 112.113H561.771C562.043 113.43 562.77 114.565 563.95 115.518C565.176 116.427 566.743 116.881 568.65 116.881C570.557 116.881 571.942 116.495 572.804 115.723C573.713 114.951 574.167 114.065 574.167 113.067C574.167 111.614 573.531 110.637 572.26 110.138C570.988 109.593 569.217 109.071 566.947 108.571C565.494 108.253 564.018 107.867 562.52 107.413C561.021 106.959 559.637 106.392 558.365 105.711C557.139 104.984 556.14 104.076 555.368 102.986C554.596 101.851 554.21 100.466 554.21 98.8316C554.21 95.8347 555.391 93.3147 557.752 91.2714C560.159 89.2281 563.519 88.2064 567.832 88.2064C571.828 88.2064 575.007 89.1372 577.368 90.9989C579.774 92.8606 581.205 95.4261 581.659 98.6953H573.417C572.918 96.198 571.034 94.9493 567.764 94.9493C566.13 94.9493 564.858 95.2671 563.95 95.9028C563.087 96.5385 562.656 97.3331 562.656 98.2867C562.656 99.2856 563.314 100.08 564.631 100.671C565.948 101.261 567.696 101.806 569.876 102.305C572.237 102.85 574.394 103.463 576.346 104.144C578.344 104.78 579.933 105.756 581.114 107.073C582.294 108.344 582.885 110.183 582.885 112.59C582.93 114.678 582.385 116.563 581.25 118.243C580.115 119.923 578.48 121.24 576.346 122.193C574.212 123.147 571.692 123.624 568.786 123.624ZM590.608 137.79V89.0237H598.372L599.326 93.8595C600.416 92.3611 601.846 91.0443 603.617 89.9092C605.433 88.774 607.771 88.2064 610.632 88.2064C613.81 88.2064 616.648 88.9783 619.146 90.5221C621.643 92.066 623.618 94.1774 625.071 96.8564C626.524 99.5354 627.251 102.578 627.251 105.983C627.251 109.389 626.524 112.431 625.071 115.11C623.618 117.743 621.643 119.832 619.146 121.376C616.648 122.874 613.81 123.624 610.632 123.624C608.089 123.624 605.864 123.147 603.957 122.193C602.05 121.24 600.506 119.9 599.326 118.175V137.79H590.608ZM608.793 115.995C611.563 115.995 613.856 115.064 615.672 113.203C617.488 111.341 618.397 108.935 618.397 105.983C618.397 103.032 617.488 100.602 615.672 98.6953C613.856 96.7883 611.563 95.8347 608.793 95.8347C605.978 95.8347 603.662 96.7883 601.846 98.6953C600.075 100.557 599.19 102.964 599.19 105.915C599.19 108.866 600.075 111.296 601.846 113.203C603.662 115.064 605.978 115.995 608.793 115.995ZM639.738 83.7793C638.149 83.7793 636.832 83.3025 635.788 82.349C634.789 81.3954 634.29 80.1921 634.29 78.7391C634.29 77.2861 634.789 76.1055 635.788 75.1974C636.832 74.2439 638.149 73.7671 639.738 73.7671C641.328 73.7671 642.622 74.2439 643.621 75.1974C644.665 76.1055 645.187 77.2861 645.187 78.7391C645.187 80.1921 644.665 81.3954 643.621 82.349C642.622 83.3025 641.328 83.7793 639.738 83.7793ZM635.379 122.806V89.0237H644.097V122.806H635.379ZM668.249 122.806C664.708 122.806 661.87 121.944 659.736 120.218C657.601 118.493 656.534 115.428 656.534 111.023V96.3115H650.745V89.0237H656.534L657.556 79.9651H665.252V89.0237H674.379V96.3115H665.252V111.091C665.252 112.726 665.593 113.861 666.274 114.497C667.001 115.087 668.227 115.382 669.952 115.382H674.175V122.806H668.249ZM693.511 123.624C690.605 123.624 688.221 123.17 686.36 122.261C684.498 121.308 683.113 120.059 682.205 118.515C681.297 116.971 680.843 115.269 680.843 113.407C680.843 110.274 682.069 107.731 684.521 105.779C686.973 103.826 690.651 102.85 695.554 102.85H704.136V102.033C704.136 99.717 703.478 98.0142 702.161 96.9245C700.844 95.8347 699.21 95.2898 697.257 95.2898C695.486 95.2898 693.943 95.7212 692.626 96.5839C691.309 97.4012 690.492 98.6272 690.174 100.262H681.66C681.887 97.8099 682.704 95.6758 684.112 93.8595C685.565 92.0433 687.427 90.6584 689.697 89.7048C691.967 88.7059 694.51 88.2064 697.325 88.2064C702.138 88.2064 705.93 89.4097 708.7 91.8162C711.469 94.2228 712.854 97.6283 712.854 102.033V122.806H705.43L704.613 117.357C703.614 119.174 702.207 120.672 700.39 121.853C698.619 123.033 696.326 123.624 693.511 123.624ZM695.486 116.813C697.984 116.813 699.914 115.995 701.276 114.361C702.683 112.726 703.569 110.705 703.932 108.299H696.508C694.192 108.299 692.535 108.73 691.536 109.593C690.537 110.41 690.038 111.432 690.038 112.658C690.038 113.975 690.537 114.996 691.536 115.723C692.535 116.449 693.852 116.813 695.486 116.813ZM721.174 122.806V73.7671H729.892V122.806H721.174ZM780.363 123.624C775.595 123.624 771.418 122.579 767.831 120.491C764.289 118.402 761.497 115.518 759.453 111.841C757.456 108.117 756.457 103.826 756.457 98.9678C756.457 94.1093 757.456 89.841 759.453 86.1631C761.497 82.4398 764.289 79.5337 767.831 77.445C771.418 75.3563 775.595 74.312 780.363 74.312C785.085 74.312 789.24 75.3563 792.827 77.445C796.414 79.5337 799.207 82.4398 801.205 86.1631C803.203 89.841 804.202 94.1093 804.202 98.9678C804.202 103.826 803.203 108.117 801.205 111.841C799.207 115.518 796.414 118.402 792.827 120.491C789.24 122.579 785.085 123.624 780.363 123.624ZM780.363 115.791C784.904 115.791 788.514 114.293 791.193 111.296C793.917 108.299 795.279 104.19 795.279 98.9678C795.279 93.746 793.917 89.6367 791.193 86.6399C788.514 83.643 784.904 82.1446 780.363 82.1446C775.822 82.1446 772.19 83.643 769.466 86.6399C766.741 89.6367 765.379 93.746 765.379 98.9678C765.379 104.19 766.741 108.299 769.466 111.296C772.19 114.293 775.822 115.791 780.363 115.791ZM811.899 122.806V75.1293H829.54C833.354 75.1293 836.51 75.765 839.007 77.0364C841.504 78.3078 843.366 80.0559 844.592 82.2808C845.818 84.5058 846.431 87.0031 846.431 89.7729C846.431 92.4065 845.841 94.8358 844.66 97.0607C843.479 99.2402 841.64 101.011 839.143 102.373C836.646 103.69 833.445 104.348 829.54 104.348H820.617V122.806H811.899ZM820.617 97.265H828.995C832.037 97.265 834.216 96.6066 835.533 95.2898C836.895 93.9276 837.577 92.0887 837.577 89.7729C837.577 87.4118 836.895 85.5728 835.533 84.256C834.216 82.8938 832.037 82.2127 828.995 82.2127H820.617V97.265ZM853.271 122.806V75.1293H869.549C875.134 75.1293 879.72 76.1282 883.307 78.1261C886.94 80.0786 889.619 82.8484 891.344 86.4355C893.115 89.9773 894 94.1547 894 98.9678C894 103.781 893.115 107.981 891.344 111.568C889.619 115.11 886.94 117.88 883.307 119.878C879.72 121.83 875.134 122.806 869.549 122.806H853.271ZM861.989 115.314H869.14C873.136 115.314 876.292 114.678 878.607 113.407C880.923 112.09 882.581 110.229 883.579 107.822C884.578 105.37 885.078 102.419 885.078 98.9678C885.078 95.5623 884.578 92.6336 883.579 90.1816C882.581 87.7296 880.923 85.8453 878.607 84.5285C876.292 83.2117 873.136 82.5533 869.14 82.5533H861.989V115.314Z" fill="white"/>
</svg>
